<svg fill="none" height="96" viewBox="0 0 96 96" width="96" xmlns="http://www.w3.org/2000/svg" xmlns:xlink="http://www.w3.org/1999/xlink"><filter id="a" color-interpolation-filters="sRGB" filterUnits="userSpaceOnUse" height="88.5558" width="112.058" x="-8.05835" y="15.1959"><feFlood flood-opacity="0" result="BackgroundImageFix"/><feColorMatrix in="SourceAlpha" type="matrix" values="0 0 0 0 0 0 0 0 0 0 0 0 0 0 0 0 0 0 127 0"/><feOffset/><feGaussianBlur stdDeviation="4"/><feColorMatrix type="matrix" values="0 0 0 0 0 0 0 0 0 0 0 0 0 0 0 0 0 0 0.25 0"/><feBlend in2="BackgroundImageFix" mode="overlay" result="effect1_dropShadow"/><feBlend in="SourceGraphic" in2="effect1_dropShadow" mode="normal" result="shape"/></filter><filter id="b" color-interpolation-filters="sRGB" filterUnits="userSpaceOnUse" height="111.505" width="46" x="58" y="-7.75256"><feFlood flood-opacity="0" result="BackgroundImageFix"/><feColorMatrix in="SourceAlpha" type="matrix" values="0 0 0 0 0 0 0 0 0 0 0 0 0 0 0 0 0 0 127 0"/><feOffset/><feGaussianBlur stdDeviation="4"/><feColorMatrix type="matrix" values="0 0 0 0 0 0 0 0 0 0 0 0 0 0 0 0 0 0 0.25 0"/><feBlend in2="BackgroundImageFix" mode="overlay" result="effect1_dropShadow"/><feBlend in="SourceGraphic" in2="effect1_dropShadow" mode="normal" result="shape"/></filter><linearGradient id="c" gradientUnits="userSpaceOnUse" x1="47.9417" x2="47.9417" y1=".247498" y2="95.7526"><stop offset="0" stop-color="#fff"/><stop offset="1" stop-color="#fff" stop-opacity="0"/></linearGradient><mask id="d" height="96" maskUnits="userSpaceOnUse" width="96" x="0" y="0"><path clip-rule="evenodd" d="m68.0754 95.3445c1.512.589 3.2361.5512 4.7622-.1831l19.7648-9.5104c2.0769-.9994 3.3976-3.1013 3.3976-5.4073v-64.4869c0-2.306-1.3207-4.4079-3.3976-5.4073l-19.7648-9.510694c-2.0028-.96373-4.3468-.727677-6.1046.550264-.2511.18255-.4903.38638-.7148.61101l-37.8373 34.51972-16.4812-12.5106c-1.5342-1.1645-3.68021-1.0691-5.10514.2271l-5.28605 4.8084c-1.74296 1.5855-1.744958 4.3275-.00432 5.9156l14.29301 13.0398-14.29301 13.0398c-1.740638 1.588-1.73864 4.3301.00432 5.9156l5.28605 4.8084c1.42493 1.2962 3.57094 1.3916 5.10514.227l16.4812-12.5105 37.8373 34.5197c.5986.5989 1.3014 1.0499 2.0572 1.3444zm3.9392-69.1375-28.7098 21.7931 28.7098 21.7931z" fill="#fff" fill-rule="evenodd"/></mask><g mask="url(#d)"><path d="m92.6029 10.3644-19.7803-9.523878c-2.2895-1.102381-5.0257-.637373-6.8226 1.159478l-64.75337 59.0398c-1.741694 1.5881-1.739692 4.3301.00432 5.9156l5.28927 4.8084c1.4258 1.2962 3.57308 1.3917 5.10828.2271l77.978-59.1558c2.616-1.9846 6.3735-.1187 6.3735 3.1649v-.2296c0-2.305-1.3204-4.4061-3.3971-5.406z" fill="#0065a9"/><g filter="url(#a)"><path d="m92.6029 85.6357-19.7803 9.5238c-2.2895 1.1024-5.0257.6374-6.8226-1.1595l-64.75337-59.0398c-1.741694-1.588-1.739692-4.3301.00432-5.9156l5.28927-4.8084c1.4258-1.2962 3.57308-1.3916 5.10828-.227l77.978 59.1557c2.616 1.9846 6.3735.1188 6.3735-3.1649v.2297c0 2.3049-1.3204 4.4061-3.3971 5.406z" fill="#007acc"/></g><g filter="url(#b)"><path d="m72.8235 95.1613c-2.2903 1.1014-5.0265.6357-6.8235-1.1613 2.2141 2.2141 6 .646 6-2.4853v-87.02946c0-3.13127-3.7858-4.699427-6-2.48528 1.797-1.797019 4.5332-2.262684 6.8235-1.161277l19.7769 9.510717c2.0781.9994 3.3996 3.1013 3.3996 5.4073v64.4869c0 2.3059-1.3215 4.4079-3.3997 5.4072z" fill="#1f9cf0"/></g><path clip-rule="evenodd" d="m68.0171 95.3444c1.5119.589 3.2361.5512 4.7621-.1831l19.7648-9.5104c2.0769-.9994 3.3977-3.1013 3.3977-5.4073v-64.4869c0-2.3059-1.3208-4.4078-3.3976-5.4072l-19.7649-9.510755c-2.0028-.96373-4.3467-.727677-6.1046.550265-.2511.18255-.4902.38638-.7147.611l-37.8374 34.51979-16.4812-12.5106c-1.5342-1.1646-3.68016-1.0692-5.10509.227l-5.28605 4.8084c-1.74296 1.5855-1.744957 4.3276-.00432 5.9156l14.29306 13.0398-14.29306 13.0398c-1.740637 1.5881-1.73864 4.3301.00432 5.9156l5.28605 4.8085c1.42493 1.2961 3.57089 1.3916 5.10509.227l16.4812-12.5106 37.8374 34.5197c.5985.5989 1.3013 1.05 2.0572 1.3444zm3.9391-69.1375-28.7098 21.7931 28.7098 21.7931z" fill="url(#c)" fill-rule="evenodd" opacity=".25"/></g></svg>