<svg fill="none" height="90" viewBox="0 0 90 90" width="90" xmlns="http://www.w3.org/2000/svg"><path clip-rule="evenodd" d="m79.746 25.9816 6.8579-4.1192c-3.8064-6.3372-9.1291-11.6599-15.4663-15.46634l-4.1193 6.85794-4.1192 6.858c4.0903 2.4568 7.5321 5.8986 9.9889 9.9889zm-22.7462-16.88134 1.9382-7.76167c-3.5016-.874391-7.1656-1.33859-10.938-1.33859s-7.4364.4642-10.938 1.33859l1.9382 7.76167 1.9382 7.76164c2.2439-.5603 4.6063-.8619 7.0616-.8619s4.8177.3016 7.0616.8619zm-28.0182 4.15374-4.1192-6.85794c-6.3372 3.80644-11.6599 9.12914-15.46635 15.46634l6.85795 4.1193 6.858 4.1192c2.4568-4.0903 5.8986-7.5321 9.9889-9.9889zm-25.9816 31.746c0-3.7724.4642-7.4364 1.33859-10.938l7.76171 1.9382 7.7616 1.9382c-.5603 2.2439-.8619 4.6063-.8619 7.0616s.3016 4.8177.8619 7.0616l-7.7616 1.9382-7.76171 1.9382c-.87439-3.5016-1.33859-7.1656-1.33859-10.938zm13.254 19.0183-6.85794 4.1193c3.80644 6.3372 9.12914 11.6599 15.46634 15.4663l4.1193-6.8579 4.1192-6.858c-4.0903-2.4568-7.5321-5.8986-9.9889-9.9889zm22.7462 16.8814-1.9382 7.7617c3.5016.8744 7.1656 1.3386 10.938 1.3386s7.4364-.4642 10.938-1.3386l-1.9382-7.7617-1.9382-7.7616c-2.2439.5603-4.6063.8619-7.0616.8619s-4.8177-.3016-7.0616-.8619zm28.0181-4.1537 4.1193 6.8579c6.3372-3.8064 11.6599-9.1291 15.4663-15.4663l-6.8579-4.1193-6.858-4.1192c-2.4568 4.0903-5.8986 7.5321-9.9889 9.9889z" fill="#e04a89" fill-rule="evenodd"/></svg>