<svg fill="none" height="502" viewBox="0 0 502 502" width="502" xmlns="http://www.w3.org/2000/svg"><path clip-rule="evenodd" d="m377.466 169-5.864 10.179 5.864 10.178h11.719l5.864-10.178-5.864-10.179zm-58.848 30.543 6.923-17.742 17.43-10.577h19.466v17.798h-14.516l-8.045 4.88-3.514 9.004v2.894h20.902v16.806c-5.446 0-14.467-4.523-20.902-14.282v3.761 4.187 82.037h-17.744v-82.037-4.215-3.272c-6.407 9.445-15.234 13.821-20.588 13.821v-16.813h20.588zm-130.983 26.915c5.417-.28 8.185 6.417 4.155 10.066l-11.378 10.298c-2.538 2.3-2.538 6.292 0 8.585l11.371 10.29c4.03 3.642 1.262 10.346-4.155 10.067l-15.296-.783c-3.409-.175-6.226 2.642-6.052 6.068l.781 15.338c.279 5.438-6.4 8.214-10.04 4.173l-10.262-11.402c-2.287-2.545-6.268-2.545-8.562 0l-10.262 11.402c-3.633 4.034-10.319 1.258-10.04-4.173l.781-15.338c.174-3.419-2.636-6.243-6.052-6.068l-15.2962.783c-5.4242.279-8.192-6.418-4.1623-10.067l11.3715-10.29c2.538-2.3 2.538-6.292 0-8.585l-11.3715-10.291c-4.0228-3.649-1.2549-10.346 4.1623-10.066l15.2962.783c3.409.174 6.226-2.643 6.052-6.068l-.781-15.338c-.279-5.439 6.4-8.214 10.04-4.174l10.262 11.395c2.294 2.545 6.275 2.545 8.562 0l10.269-11.402c3.633-4.033 10.319-1.258 10.04 4.174l-.781 15.338c-.174 3.418 2.636 6.242 6.052 6.068zm79.292-24.489c-10.548 0-19.374 10.29-21.773 24.132-2.398-13.849-11.225-24.132-21.773-24.132-10.535 0-19.347 10.255-21.76 24.062l.133 50.355c2.593 13.443 11.281 23.342 21.627 23.342 10.548 0 19.375-10.29 21.773-24.132 2.399 13.849 11.225 24.132 21.773 24.132 12.076 0 21.892-13.464 22.394-30.333h.049v-35.765c-.007-17.484-10.053-31.661-22.443-31.661zm-227.2428 19.196h18.5453l17.4508 13.268 10.7228-14.17-22.2056-16.89h-30.4813l-24.47839 18.61-9.23781 29.766 9.23781 29.767 24.47839 18.617h30.4813l22.2056-16.89-10.7228-14.177-17.4508 13.275h-18.5453l-15.1918-11.556-5.9052-19.036 5.9052-19.036zm334.7938 15.471h-8.848v30.837h8.848v30.836h17.701v-30.836h-8.847v-30.837h8.847v-30.836h-17.701zm102.186-30.438h25.336v17.75h-25.336zm-.042 57.821v-39.974l-34.525-19.986-34.525 19.986v39.974l34.525 19.986zm.432 30.92c0 21.525-15.491 38.967-34.608 38.967s-34.609-17.442-34.616-38.967z" fill="#f4d150" fill-rule="evenodd"/></svg>