<svg fill="none" height="57" viewBox="0 0 57 57" width="57" xmlns="http://www.w3.org/2000/svg"><path d="m28 28.5c0-5.247 4.253-9.5 9.5-9.5s9.5 4.253 9.5 9.5-4.253 9.5-9.5 9.5-9.5-4.253-9.5-9.5z" fill="#1abcfe"/><path d="m9 47.5c0-5.247 4.253-9.5 9.5-9.5h9.5v9.5c0 5.247-4.253 9.5-9.5 9.5s-9.5-4.253-9.5-9.5z" fill="#0acf83"/><path d="m28 0v19h9.5c5.247 0 9.5-4.253 9.5-9.5s-4.253-9.5-9.5-9.5z" fill="#ff7262"/><path d="m9 9.5c0 5.247 4.253 9.5 9.5 9.5h9.5v-19h-9.5c-5.247 0-9.5 4.253-9.5 9.5z" fill="#f24e1e"/><path d="m9 28.5c0 5.247 4.253 9.5 9.5 9.5h9.5v-19h-9.5c-5.247 0-9.5 4.253-9.5 9.5z" fill="#a259ff"/></svg>