<svg fill="none" height="96" viewBox="0 0 96 96" width="96" xmlns="http://www.w3.org/2000/svg"><g fill="#4a4ae0"><path d="m37.35 52c-3.4-5.89-5.35-12.72-5.35-20 7.28 0 14.11 1.95 20 5.35-6.07 3.51-11.14 8.58-14.65 14.65z"/><path d="m64 32c0 7.28-1.95 14.11-5.35 20-3.51-6.07-8.58-11.14-14.65-14.65 5.89-3.4 12.72-5.35 20-5.35z"/><path d="m52 58.65c-5.89 3.4-12.72 5.35-20 5.35 0-7.28 1.95-14.11 5.35-20 3.51 6.07 8.58 11.14 14.65 14.65z"/><path d="m64 64c-7.28 0-14.11-1.95-20-5.35 6.07-3.51 11.14-8.58 14.65-14.65 3.4 5.89 5.35 12.72 5.35 20z"/><path d="m32 32c-11.84 0-22.184 6.432-27.72 16-2.72-4.712-4.28-10.176-4.28-16 0-17.672 14.328-32 32-32 5.824 0 11.288 1.56 16 4.28-9.568 5.536-16 15.88-16 27.72z"/><path d="m96 32c0 5.824-1.56 11.288-4.28 16-5.536-9.568-15.88-16-27.72-16 0-11.84-6.432-22.184-16-27.72 4.712-2.72 10.176-4.28 16-4.28 17.672 0 32 14.328 32 32z"/><path d="m32 64c0 11.84 6.432 22.184 16 27.72-4.712 2.72-10.176 4.28-16 4.28-17.672 0-32-14.328-32-32 0-5.824 1.56-11.288 4.28-16 5.536 9.568 15.88 16 27.72 16z"/><path d="m96 64c0 17.672-14.328 32-32 32-5.824 0-11.288-1.56-16-4.28 9.568-5.536 16-15.88 16-27.72 11.84 0 22.184-6.432 27.72-16 2.72 4.712 4.28 10.176 4.28 16z"/><path d="m48 60v-4c-4.8-3.2-7.3333-6.6667-8-8h-4c-3.2 3.2-4 12-4 16 9.6 0 14.6667-2.6667 16-4z"/><path d="m60 48h-4c-3.2 4.8-6.6667 7.3333-8 8v4c3.2 3.2 12 4 16 4 0-9.6-2.6667-14.6667-4-16z"/><path d="m48 36v4c4.8 3.2 7.3333 6.6667 8 8h4c3.2-3.2 4-12 4-16-9.6 0-14.6667 2.6667-16 4z"/><path d="m36 48h4c3.2-4.8 6.6667-7.3333 8-8v-4c-3.2-3.2-12-4-16-4 0 9.6 2.6667 14.6667 4 16z"/></g></svg>