<svg fill="none" height="122" viewBox="0 0 121 122" width="121" xmlns="http://www.w3.org/2000/svg"><path d="m0 1h120v120h-120z"/><path clip-rule="evenodd" d="m20.0099 81.0099-20.00989822-20.0099 20.00989822-20.0099v15.0074l-5.0024 5.0025 5.0024 5.0025zm20.0116-60.0311 20.0099-20.009883 20.0099 20.009883h-15.0074l-5.0025-5.0024-5.0025 5.0024zm-10.004 34.0196v-24.0119h24.012zm6.002 6 24.0119-24.0119 24.012 24.0119-24.012 24.012zm-6.002 30.0164h24.012l-24.012-24.0119zm60.0294-24.0119v24.0119h-24.012zm0-36.0164h-24.0119l24.0119 24.0119zm-30.0155 90.0425-20.0099-20.01h15.0074l5.0025 5.002 5.0025-5.002h15.0074zm60.0306-60.03-20.009 20.01v-15.0075l5.002-5.0025-5.002-5.0025v-15.0074z" fill="#099821" fill-rule="evenodd"/></svg>