<svg fill="none" height="120" viewBox="0 0 120 120" width="120" xmlns="http://www.w3.org/2000/svg"><path d="m46.2022 45.5732h27.5956v27.5955h-27.5956z" fill="#d8440d"/><path d="m46.2022 45.5732h27.5956v27.5955h-27.5956z" fill="#e65100"/><path d="m46.2022 45.5732h27.5956v27.5955h-27.5956z" fill="#1976d2"/><path d="m46.2022 45.5732h27.5956v27.5955h-27.5956z" fill="#3173f1"/><path d="m61.3802 24.8767 33.1146 33.1146v-33.1146z" fill="#d8440d"/><path d="m61.3802 24.8767 33.1146 33.1146v-33.1146z" fill="#e65100"/><path d="m61.3802 24.8767 33.1146 33.1146v-33.1146z" fill="#1976d2"/><path d="m61.3802 24.8767 33.1146 33.1146v-33.1146z" fill="#3173f1"/><path d="m83.416.0004172-46.8312.00001184 23.4156 23.41557096z" fill="#d8440d"/><path d="m83.416.0004172-46.8312.00001184 23.4156 23.41557096z" fill="#e65100"/><path d="m83.416.0004172-46.8312.00001184 23.4156 23.41557096z" fill="#1976d2"/><path d="m83.416.0004172-46.8312.00001184 23.4156 23.41557096z" fill="#3173f1"/><path d="m120 36.584v46.8312l-23.416-23.4156z" fill="#d8440d"/><path d="m120 36.584v46.8312l-23.416-23.4156z" fill="#e65100"/><path d="m120 36.584v46.8312l-23.416-23.4156z" fill="#1976d2"/><path d="m120 36.584v46.8312l-23.416-23.4156z" fill="#3173f1"/><path d="m36.584 120h46.8311l-23.4155-23.416z" fill="#d8440d"/><path d="m36.584 120h46.8311l-23.4155-23.416z" fill="#e65100"/><path d="m36.584 120h46.8311l-23.4155-23.416z" fill="#1976d2"/><path d="m36.584 120h46.8311l-23.4155-23.416z" fill="#3173f1"/><path d="m.00043055 83.416.00001579-46.8312 23.41555366 23.4156z" fill="#d8440d"/><path d="m.00043055 83.416.00001579-46.8312 23.41555366 23.4156z" fill="#e65100"/><path d="m.00043055 83.416.00001579-46.8312 23.41555366 23.4156z" fill="#1976d2"/><path d="m.00043055 83.416.00001579-46.8312 23.41555366 23.4156z" fill="#3173f1"/><path d="m25.5065 57.9909 33.1147-33.1146h-33.1147z" fill="#d8440d"/><path d="m25.5065 57.9909 33.1147-33.1146h-33.1147z" fill="#e65100"/><path d="m25.5065 57.9909 33.1147-33.1146h-33.1147z" fill="#1976d2"/><path d="m25.5065 57.9909 33.1147-33.1146h-33.1147z" fill="#3173f1"/><path d="m58.6198 93.8655-33.1146-33.1146v33.1146z" fill="#d8440d"/><path d="m58.6198 93.8655-33.1146-33.1146v33.1146z" fill="#e65100"/><path d="m58.6198 93.8655-33.1146-33.1146v33.1146z" fill="#1976d2"/><path d="m58.6198 93.8655-33.1146-33.1146v33.1146z" fill="#3173f1"/><path d="m94.4935 60.7513-33.1147 33.1146h33.1147z" fill="#d8440d"/><path d="m94.4935 60.7513-33.1147 33.1146h33.1147z" fill="#e65100"/><path d="m94.4935 60.7513-33.1147 33.1146h33.1147z" fill="#1976d2"/><path d="m94.4935 60.7513-33.1147 33.1146h33.1147z" fill="#3173f1"/></svg>